<?xml version="1.0" encoding="utf-8"?>
<!-- Generator: Adobe Illustrator 24.3.0, SVG Export Plug-In . SVG Version: 6.00 Build 0)  -->
<svg version="1.1" id="Layer_1" xmlns="http://www.w3.org/2000/svg" xmlns:xlink="http://www.w3.org/1999/xlink" x="0px" y="0px"
	 viewBox="0 0 457.5 433.3" style="enable-background:new 0 0 457.5 433.3;" xml:space="preserve">
<style type="text/css">
	.st0{fill:none;}
	.st1{fill:#B6DCD5;stroke:#B6DCD5;stroke-miterlimit:10;}
	.st2{fill:#D52F4B;}
	.st3{fill:#732636;}
	.st4{fill:#6AC762;}
	.st5{fill:#2A9F29;}
	.st6{fill:#F8C4CB;}
	.st7{font-family:'AllerDisplay-Regular';}
	.st8{font-size:98.3372px;}
</style>
<rect id="background" x="-2.7" y="-43.8" class="st0" width="432.4" height="432.5"/>
<path class="st1" d="M314,94.8"/>
<path class="st2" d="M284.1,419.1c9.3-0.3,35.1-2.6,55.4-22.5c19.5-19.1,21.6-42.2,22.7-54.2c1.5-16.7,3.8-41.2-13.2-56
	c-16.7-14.6-47.1-15.7-57.9-9.1c-2.9,2.1-6.5,3.1-10.1,3c-5.5-0.4-9.1-4.2-11.3-6.1c-10.8-9.1-30-6.2-37.2-4.3
	c-19.9,5.4-29,25.8-32.1,32.9c-11.2,25.2-7.2,57.1,10.7,81C212.7,386.1,239.4,420.5,284.1,419.1z"/>
<path class="st3" d="M285.9,278.8c0.8-5.2,1.6-12.3,2.1-20.6c0.7-16.5-0.1-33-2.4-49.3c-9.5-61-54.1-115.4-64.7-128.3
	c-6.2-7.6-14.9-16.2-32.9-32.7c-8.6-7.9-15.5-13.7-22.6-12c-5.8,1.3-11,7.3-9.9,10.7c0.8,2.5,4.5,2,8.2,4.9
	c4.6,3.7,5.1,9.7,5.7,15.3c1.8,18.7,2.7,28,2.5,31.7c-0.9,14.9-1.8,31.1-10.2,49.5c-14.6,32-23.5,45.1-23.5,45.1
	c-1.4,2.1-5.9,8.5-3.7,11.5c1.4,1.8,4.7,1.9,7.1,1.4c6-1.4,8.9-7.9,14.1-19.7c10.5-23.7,10.3-23,10.5-23.5
	c7.9-22.8,13.7-39.8,14.4-63.5c0.5-16,1-32.3-5.4-43.7c-0.7-1.2-3.7-6.5-2.5-7.4c1.2-0.9,4.9,2.2,8.5,5.2
	c7.7,6.3,14.9,13.3,21.5,20.8c7.7,8.4,15,17.3,21.8,26.5c33.9,46.4,45.5,82.1,45.5,82.1c3.4,10.4,8,24.6,9.3,43.7
	c0.8,12.1,1.3,22.2,0.9,26.1c-1.4,13.9-5.5,24-1.4,26.8C280.8,280.7,283.8,279.7,285.9,278.8z"/>
<path class="st4" d="M441.8,99.9c1.7-3.2-4.3-8.7-15.6-19.8c-41.7-40.8-38-42.5-51.7-50.8c-16.4-9.7-34.8-15.7-53.7-17.5
	c-19.6-2-30.9,1.4-82.2,13.2c-33.6,7.7-56.5,6.8-56.9,12.8c-0.2,2.8,4.5,7,8.8,7.4c3.1,0.3,5.2-1.4,7.6-2.7c5.9-3,11.7-2.2,20.1-1.2
	c13.6,1.7,27.6,12.9,39.7,21.7c23.8,17.3,35.6,25.9,51.7,30.2c14,3.8,27.7,4.1,39.3,4.3c15.3,0.3,18-1.2,31.7-1.6
	C417.8,95.1,438.9,105.4,441.8,99.9z"/>
<path class="st2" d="M102.6,342.8c9,2,34.5,6.3,59.5-7.9c23.9-13.6,32.1-35.3,36.4-46.7c5.9-15.8,14.6-38.8,2.2-57.4
	c-12.2-18.3-41.3-27-53.5-23.4c-3.4,1.3-7.1,1.4-10.5,0.4c-5.2-1.7-7.7-6.3-9.3-8.7c-8-11.4-27.4-13.5-34.7-13.4
	C72,186,57.8,203.5,52.9,209.5c-17.5,21.6-22.2,53.3-11.3,80.9C42.5,293,59.1,332.9,102.6,342.8z"/>
<path class="st5" d="M273.3,35.3c16,1.1,31.9,3.7,47.4,7.9c25.6,6.4,49.6,18,70.5,34"/>
<ellipse class="st6" cx="83.8" cy="206.3" rx="8.4" ry="8.5"/>
<ellipse class="st6" cx="72.7" cy="222.6" rx="4.2" ry="4.3"/>
<ellipse class="st6" cx="229.6" cy="292.5" rx="8.4" ry="8.5"/>
<ellipse class="st6" cx="223.7" cy="309.6" rx="4.2" ry="4.3"/>
<text transform="matrix(1.3345 0 0 1 78.1913 309.3004)" class="st7 st8">H</text>
<text transform="matrix(1.2341 0 0 1 248.2299 384.5416)" class="st7 st8">Z</text>
</svg>
