<svg id="Layer_1" data-name="Layer 1" xmlns="http://www.w3.org/2000/svg" viewBox="0 0 457.51 433.27"><defs><style>.cls-1{fill:none;}.cls-2{fill:#b6dcd5;stroke:#b6dcd5;stroke-miterlimit:10;}.cls-3{fill:#d52f4b;}.cls-4{fill:#732636;}.cls-5{fill:#6ac762;}.cls-6{fill:#2a9f29;}.cls-7{fill:#f8c4cb;}.cls-8{font-size:72px;font-family:AllerDisplay-Regular, Aller Display;}</style></defs><text x="119.36" y="101.62"/><rect id="background" class="cls-1" x="132.95" y="94.31" width="315.52" height="316.69"/><text x="119.36" y="101.62"/><path class="cls-2" d="M244.65,94.16" transform="translate(119.36 101.62)"/><path class="cls-3" d="M222.85,331.62c6.77-.2,25.58-1.88,40.43-16.49,14.21-14,15.74-30.88,16.54-39.67,1.12-12.25,2.74-30.13-9.65-41-12.18-10.7-34.38-11.49-42.26-6.68a12.23,12.23,0,0,1-7.35,2.23c-4-.28-6.64-3.08-8.27-4.46-7.85-6.63-21.9-4.53-27.11-3.12-14.54,3.93-21.14,18.89-23.43,24.07-8.14,18.45-5.24,41.79,7.81,59.28C170.79,307.42,190.27,332.6,222.85,331.62Z" transform="translate(119.36 101.62)"/><path class="cls-4" d="M224.21,228.87c.57-3.84,1.2-9,1.56-15.08a196.17,196.17,0,0,0-1.72-36.1c-6.91-44.67-39.48-84.47-47.22-93.93-4.56-5.57-10.85-11.84-24-23.93-6.28-5.75-11.31-10-16.52-8.81-4.23.95-8,5.35-7.22,7.81.58,1.82,3.31,1.45,6,3.6,3.34,2.69,3.73,7.09,4.13,11.22,1.34,13.69,2,20.53,1.86,23.23-.63,10.89-1.32,22.79-7.43,36.25-10.65,23.44-17.14,33.05-17.14,33.05-1,1.56-4.29,6.25-2.68,8.41,1,1.31,3.44,1.4,5.16,1,4.41-1,6.52-5.82,10.32-14.42,7.69-17.38,7.5-16.81,7.64-17.22,5.73-16.68,10-29.11,10.53-46.47.35-11.71.71-23.63-3.92-32-.5-.91-2.7-4.75-1.86-5.41s3.56,1.61,6.19,3.8a134.91,134.91,0,0,1,15.69,15.23,232.81,232.81,0,0,1,15.9,19.42c24.74,33.94,33.23,60.09,33.23,60.09,2.48,7.65,5.84,18,6.8,32,.62,8.85.92,16.25.63,19.11-1,10.19-4,17.6-1,19.63C220.47,230.25,222.66,229.56,224.21,228.87Z" transform="translate(119.36 101.62)"/><path class="cls-5" d="M337.94,97.85c1.23-2.35-3.13-6.34-11.41-14.48-30.41-29.86-27.71-31.09-37.76-37.2a93.62,93.62,0,0,0-39.22-12.78c-14.29-1.45-22.56,1-60,9.66C165,48.71,148.33,48,148,52.42c-.16,2.07,3.25,5.13,6.44,5.39,2.25.19,3.76-1.06,5.56-2,4.27-2.18,8.52-1.64,14.64-.86,9.89,1.27,20.15,9.48,29,15.91C221,83.5,229.63,89.82,241.35,93c10.18,2.78,20.18,3,28.69,3.12,11.19.21,13.17-.9,23.12-1.14C320.4,94.37,335.81,101.94,337.94,97.85Z" transform="translate(119.36 101.62)"/><path class="cls-3" d="M90.39,275.71c6.59,1.5,25.21,4.61,43.45-5.78,17.45-9.93,23.44-25.87,26.56-34.17,4.34-11.55,10.68-28.41,1.62-42C153.1,180.34,131.86,174,123,176.66a12.3,12.3,0,0,1-7.69.31c-3.83-1.28-5.6-4.64-6.8-6.38-5.81-8.38-20-9.87-25.35-9.82-15.1.15-25.46,12.94-29,17.37-12.79,15.78-16.22,39.05-8.27,59.22C46.56,239.26,58.66,268.48,90.39,275.71Z" transform="translate(119.36 101.62)"/><path class="cls-6" d="M215,50.58a178.35,178.35,0,0,1,34.58,5.8,140.63,140.63,0,0,1,51.44,24.93" transform="translate(119.36 101.62)"/><ellipse class="cls-7" cx="196.08" cy="277.43" rx="6.16" ry="6.26"/><ellipse class="cls-7" cx="187.99" cy="289.34" rx="3.08" ry="3.13"/><ellipse class="cls-7" cx="302.43" cy="340.49" rx="6.16" ry="6.26"/><ellipse class="cls-7" cx="298.15" cy="353.03" rx="3.08" ry="3.13"/><text class="cls-8" transform="translate(191.97 352.82) scale(1.33 1)">H</text><text class="cls-8" transform="translate(316.05 407.91) scale(1.23 1)">Z</text></svg>