<?xml version="1.0" encoding="utf-8"?>
<!-- Generator: Adobe Illustrator 24.3.0, SVG Export Plug-In . SVG Version: 6.00 Build 0)  -->
<svg version="1.1" id="Layer_1" xmlns="http://www.w3.org/2000/svg" xmlns:xlink="http://www.w3.org/1999/xlink" x="0px" y="0px"
	 viewBox="0 0 303.95 298.56" style="enable-background:new 0 0 303.95 298.56;" xml:space="preserve">
<style type="text/css">
	.st0{fill:none;}
	.st1{fill:#B7DCD5;stroke:#B7DCD5;stroke-miterlimit:10;}
	.st2{fill:#71C064;}
	.st3{fill:#2D9F48;}
	.st4{fill:#D5304C;}
	.st5{fill:#732737;}
	.st6{fill:#F8C5CB;}
</style>
<g>
	<rect id="background" x="10.98" y="7.48" class="st0" width="274.15" height="252.53"/>
	<path class="st1" d="M211.77,88.41"/>
	<path class="st2" d="M292.8,91.38c1.08-1.87-2.73-5.08-9.89-11.56C256.47,56,258.81,55.01,250.13,50.16
		c-10.4-5.66-22.06-9.17-34.05-10.22c-12.43-1.17-19.59,0.82-52.12,7.71c-21.3,4.5-35.82,3.97-36.08,7.47
		c-0.13,1.63,2.85,4.09,5.58,4.32c1.97,0.18,3.3-0.82,4.82-1.58c3.74-1.75,7.42-1.28,12.74-0.7c8.62,0.99,17.5,7.53,25.17,12.67
		c15.09,10.1,22.57,15.12,32.78,17.63c8.88,2.22,17.56,2.39,24.92,2.51c9.7,0.18,11.41-0.7,20.1-0.93
		C277.58,88.58,290.96,94.6,292.8,91.38z"/>
	<path class="st3" d="M185.97,53.67c10.14,0.64,20.23,2.16,30.05,4.61c16.23,3.74,31.45,10.51,44.7,19.85"/>
	<g>
		<path class="st4" d="M192.81,277.76c5.9-0.18,22.25-1.52,35.12-13.14c12.36-11.15,13.69-24.64,14.39-31.65
			c0.95-9.75,2.41-24.06-8.37-32.7c-10.59-8.52-29.86-9.17-36.71-5.31c-1.84,1.23-4.12,1.81-6.4,1.75
			c-3.49-0.23-5.77-2.45-7.16-3.56c-6.85-5.31-19.02-3.62-23.59-2.51c-12.62,3.15-18.39,15.06-20.35,19.21
			c-7.1,14.71-4.56,33.34,6.78,47.29C147.54,258.49,164.47,278.58,192.81,277.76z"/>
		<path class="st5" d="M193.95,195.84c0.51-3.04,1.01-7.18,1.33-12.03c0.44-9.63-0.06-19.27-1.52-28.79
			c-6.02-35.62-34.3-67.38-41.02-74.91c-3.93-4.44-9.45-9.46-20.86-19.09c-5.45-4.61-9.83-8-14.33-7.01
			c-3.68,0.76-6.97,4.26-6.28,6.25c0.51,1.46,2.85,1.17,5.2,2.86c2.92,2.16,3.23,5.66,3.61,8.93c1.14,10.92,1.71,16.35,1.59,18.51
			c-0.57,8.7-1.14,18.16-6.47,28.9c-9.26,18.68-14.9,26.33-14.9,26.33c-0.89,1.23-3.74,4.96-2.35,6.71c0.89,1.05,2.98,1.11,4.5,0.82
			c3.8-0.82,5.64-4.61,8.94-11.5c6.66-13.84,6.53-13.43,6.66-13.72c5.01-13.31,8.69-23.24,9.13-37.08
			c0.32-9.34,0.63-18.86-3.42-25.52c-0.44-0.7-2.35-3.8-1.59-4.32c0.76-0.53,3.11,1.28,5.39,3.04c4.88,3.68,9.45,7.77,13.63,12.14
			c4.88,4.9,9.51,10.1,13.82,15.47c21.49,27.09,28.85,47.94,28.85,47.94c2.16,6.07,5.07,14.36,5.9,25.52
			c0.51,7.06,0.82,12.96,0.57,15.24c-0.89,8.12-3.49,14.01-0.89,15.65C190.72,196.95,192.62,196.37,193.95,195.84z"/>
		<path class="st4" d="M77.74,233.21c5.71,1.17,21.87,3.68,37.72-4.61c15.15-7.94,20.35-20.61,23.08-27.27
			c3.74-9.23,9.26-22.65,1.39-33.51c-7.73-10.68-26.18-15.76-33.92-13.66c-2.16,0.76-4.5,0.82-6.66,0.23
			c-3.3-0.99-4.88-3.68-5.9-5.08c-5.07-6.66-17.37-7.88-22-7.82c-13.12,0.18-22.13,10.39-25.23,13.9
			c-11.1,12.61-14.08,31.12-7.16,47.24C39.63,204.13,50.16,227.43,77.74,233.21z"/>
		<ellipse class="st6" cx="65.82" cy="153.51" rx="5.33" ry="4.96"/>
		<ellipse class="st6" cx="58.78" cy="163.03" rx="2.66" ry="2.51"/>
		<ellipse class="st6" cx="158.26" cy="203.84" rx="5.33" ry="4.96"/>
		<ellipse class="st6" cx="154.52" cy="213.82" rx="2.66" ry="2.51"/>
	</g>
</g>
</svg>
