<svg id="Layer_1" data-name="Layer 1" xmlns="http://www.w3.org/2000/svg" viewBox="0 0 612 792"><defs><style>.cls-1{fill:#b5cff4;}.cls-2{fill:#fc7070;}.cls-3{fill:#d3b9a1;}.cls-4{fill:#dfc4a6;}.cls-5{fill:#ccacea;}.cls-6{fill:#a84343;}.cls-7{fill:#5f3896;}.cls-8{fill:#cc9696;}.cls-9{fill:#7a634d;}.cls-10,.cls-11{font-size:36px;}.cls-10,.cls-11,.cls-16{font-family:ArialRoundedMTBold, Arial Rounded MT Bold;}.cls-11{letter-spacing:-0.01em;}.cls-12{letter-spacing:-0.04em;}.cls-13{letter-spacing:0em;}.cls-14{letter-spacing:-0.03em;}.cls-15{letter-spacing:0em;}.cls-16{font-size:11px;}.cls-17{letter-spacing:-0.02em;}.cls-18{letter-spacing:-0.01em;}.cls-19{letter-spacing:-0.05em;}.cls-20{letter-spacing:-0.02em;}.cls-21{letter-spacing:0em;}.cls-22{letter-spacing:-0.01em;}.cls-23{letter-spacing:0em;}</style></defs><rect class="cls-1" width="612" height="792"/><rect class="cls-2" x="61.27" y="65.65" width="489.11" height="662.15"/><polygon class="cls-3" points="153.98 572.27 174.84 727.81 440.33 727.81 457.43 572.27 153.98 572.27"/><path class="cls-4" d="M129.74,538.29c26.66,56,52.79,82.31,61.36,90.55,25.26,24.33,64.38,62,118.9,61.79,53.05-.2,90.75-36.16,116.31-60.54,33.77-32.21,53-67.57,68.38-105.61,42.36-104.67,83.83-212.82,26.75-314C473,124.49,382.69,102.45,351,94.71c-34.68-8.46-138.38-33.77-208.11,33.4-52.11,50.21-56.1,124-59.77,192.07C77.27,427.57,114.23,505.72,129.74,538.29Z"/><path class="cls-5" d="M106.59,417.87a94,94,0,0,0,39,30.63c7.9,3.46,40.26,16.35,75.58.76,0,0,28.64-12.84,46.38-44,3-5.26,5-9.41,5.52-10.66a105.75,105.75,0,0,0,7.6-29.92,27.67,27.67,0,0,1,2.39-10.33,26.36,26.36,0,0,1,5.82-7.67c9.42-8.16,24.82-7.23,32.71.56,6,5.89,7.17,14,7.93,18.76,0,0,5.64,35.62,33,65.88,25.94,28.75,68.4,25.57,72.48,25.21,4.59-.41,43.56-4.58,69.22-40.22,22-30.61,26.89-74.18,9.46-107.76-16-30.87-45.47-42.89-55.3-46.91-8.39-3.42-20.7-8.3-37.25-7.93-44.61,1-72,39-74.18,43.73-.68,1.49-1.52,3-3.18,5.94-2.58,4.58-3.3,5.36-4.2,5.81-2.76,1.35-6.19-.88-8-1.88-4.83-2.7-12-2.6-26.31-2.4-12.07.18-18.11.26-23.71,2.38-4,1.5-7.37,3.35-10.49,1.77-2.56-1.31-3.49-4.24-4.08-5.86-1.82-4.94-5.42-9.43-12.62-18.42-10.49-13.1-24.36-19.48-30.25-22.12,0,0-1.89-.84-3.8-1.6-11.48-4.55-41.32-13.93-74.07.57a100.23,100.23,0,0,0-48,46.29C80.83,343.43,84.36,387.56,106.59,417.87Z"/><path class="cls-6" d="M228.5,570.72c14.33-5.5,23.28-12.19,28.85-17.37,3.78-3.52,7.36-7.59,14.18-10a33.09,33.09,0,0,1,17.85-1.19c7.24,1.62,7.67,4.6,13.69,5,5.33.35,6.24-1.91,14.42-3.8,4.53-1.05,12.35-2.86,20.54-.48,3.53,1,7.16,3.46,14.42,8.33,5.54,3.71,7.5,5.48,11.49,8.32A126.79,126.79,0,0,0,383.5,571c-1.4,1.83-3.42,4.39-5.94,7.37-7.05,8.34-16.55,19.56-29.19,28-7.44,5-21,14.06-40.14,14.58-16.3.45-28.56-5.51-34.69-8.57a81.09,81.09,0,0,1-24.36-18.68Z"/><path class="cls-7" d="M359.44,303.89c-12.83,30.75-7.05,64.16,3.19,94.66-6.64-34.94.73-69.69,12.92-102.5,2-5,3.53-8.33,4.42-10.21a51.06,51.06,0,0,1,2.88-5.25,8.52,8.52,0,0,1,2.67-3c.56-.29.86,0,1,.85a16.16,16.16,0,0,1-.35,4c-.32,1.79-.76,3.71-1.33,5.73-.39,1.39-.85,2.92-1.38,4.61l-1.62,5c-.55,1.67-1.09,3.4-1.64,5.21-9.63,33.57-15.63,68.57-9.47,103.39.67,3.41,1.41,6.52,2.19,9.36s1.47,5.19,2,7.1a25.69,25.69,0,0,1,1,4.19c.09.91-.24,1-1,.45a19.46,19.46,0,0,1-3.12-3.28c-1.28-1.59-2.7-3.49-4.2-5.73s-3.08-4.74-4.69-7.57-3.23-5.87-4.81-9.16c-11.88-27.28-20.28-58.12-8.6-87.1.54-1.3,1.11-2.55,1.69-3.74s1.28-2.46,2.1-3.81,1.59-2.48,2.26-3.41a86.86,86.86,0,0,1,5.73-7c2.06-2.31,3.47-3.82,4.2-4.54.91-.88.69-.46-.49,1.41A77.16,77.16,0,0,0,359.44,303.89Z"/><path class="cls-7" d="M408.8,269.49c3.83-.71,6.89,1.86,9.66,8,4.05,9,5.7,19.19,7.2,28.71,2.52,16,3,32.89,3.08,49.32A385.29,385.29,0,0,1,427,394.11a193.62,193.62,0,0,1-4.48,27.64c-1.82,7.39-3.81,12.68-6,16.1s-4.63,4.81-7.54,4.28-5.68-2.9-8.68-7.06a81.94,81.94,0,0,1-9-17.07,137.3,137.3,0,0,1-7.88-26.82,185.87,185.87,0,0,1,.2-72,135.61,135.61,0,0,1,8-26.44,80,80,0,0,1,8.8-16.52C403.26,272.28,406,270,408.8,269.49Zm9.34,85.79c-.09-11.57-.28-23.27-1.52-34.85-1-9.44-2.39-16.21-4.18-20.63s-3.82-6.41-6.29-6.14c-1.76.19-3.48,1.6-5.24,4.22a46.6,46.6,0,0,0-5,11.28,121.46,121.46,0,0,0-4.23,19.07,186.55,186.55,0,0,0-1.89,27.07,189.66,189.66,0,0,0,1.85,27.42A119.68,119.68,0,0,0,396,402.28a48,48,0,0,0,5.12,11.5c1.73,2.59,3.44,4,5.2,4.17,2.26.24,4.18-1.62,5.94-5.77s3.2-10.81,4.27-20.3A306.86,306.86,0,0,0,418.14,355.28Z"/><path class="cls-7" d="M461.91,300.44c-3.65-.79-5.52-1.14-9.31-1.74a479.94,479.94,0,0,1-1.36,123.57,64,64,0,0,1-3.48,13.85c-1.24,3-2.37,4.64-3.44,4.91s-1.72-.93-2-3.72-.09-7.25.59-13.66a731.69,731.69,0,0,0,.93-126.12c-3.9-.42-5.87-.59-9.87-.8-1.57-.08-2.78-1.38-3.61-3.87a34.36,34.36,0,0,1-1.38-9.61,32.19,32.19,0,0,1,.76-9.25c.61-2.17,1.53-3.18,2.82-3.06a74.2,74.2,0,0,1,23.74,5.57q1.82.71,3.67,4.17a41.42,41.42,0,0,1,3.33,8.67,24.9,24.9,0,0,1,1.11,8.41C464.19,299.83,463.34,300.75,461.91,300.44Z"/><path class="cls-7" d="M494.59,310.43a111.19,111.19,0,0,0-16.2-6.86A170.63,170.63,0,0,1,485.47,340c7.25.63,10.73,1,17.31,1.79,1.21.15,2.24,1.22,3,3.18a26.21,26.21,0,0,1,.48,15.49c-.67,2-1.66,3.1-2.91,3.19-6.63.44-10.14.64-17.45,1a231.4,231.4,0,0,1-7.35,42.72,111.1,111.1,0,0,0,16.8-7c1.06-.53,1.42-.07,1,1.27a23.83,23.83,0,0,1-3.32,5.85,71.35,71.35,0,0,1-5.12,6.36c-1.63,1.84-2.87,3.16-3.72,3.94a74.16,74.16,0,0,1-16.29,11.82c-1.42.8-1.93.15-1.64-2.07a118.32,118.32,0,0,1,3.09-12.43,244.22,244.22,0,0,0,0-118.57c-1.14-4.11-2-7.27-2.54-9.59s-.74-3.82-.55-4.57.72-.86,1.64-.34a74.35,74.35,0,0,1,15.86,11.43,49.73,49.73,0,0,1,3.67,3.88,72.4,72.4,0,0,1,5,6.24,23.67,23.67,0,0,1,3.19,5.68C496,310.55,495.67,311,494.59,310.43Z"/><path class="cls-8" d="M292.59,506.94c.2-1.77-2.4-3.42-3.63-4-7.58-3.63-18.78,6.34-17.89,8.85C272.14,514.78,292.06,511.62,292.59,506.94Z"/><path class="cls-8" d="M319.41,506.94c-.2-1.77,2.4-3.42,3.63-4,7.58-3.63,18.78,6.34,17.89,8.85C339.86,514.78,319.94,511.62,319.41,506.94Z"/><path class="cls-7" d="M120.28,303.89c-12.83,30.75-7,64.16,3.2,94.66-6.65-34.94.72-69.69,12.91-102.5,2-5,3.53-8.33,4.42-10.21a51.06,51.06,0,0,1,2.88-5.25,8.52,8.52,0,0,1,2.67-3c.56-.29.87,0,.95.85a15.68,15.68,0,0,1-.35,4c-.32,1.79-.75,3.71-1.32,5.73-.4,1.39-.86,2.92-1.39,4.61s-1.07,3.36-1.62,5-1.09,3.4-1.64,5.21c-9.63,33.57-15.63,68.57-9.47,103.39.67,3.41,1.41,6.52,2.19,9.36s1.48,5.19,2,7.1a27.08,27.08,0,0,1,1,4.19c.08.91-.24,1-1,.45a19.87,19.87,0,0,1-3.12-3.28c-1.28-1.59-2.69-3.49-4.19-5.73s-3.09-4.74-4.7-7.57-3.22-5.87-4.81-9.16c-11.88-27.28-20.28-58.12-8.6-87.1.55-1.3,1.11-2.55,1.69-3.74s1.28-2.46,2.1-3.81,1.59-2.48,2.26-3.41a89.06,89.06,0,0,1,5.73-7c2.06-2.31,3.47-3.82,4.21-4.54.9-.88.68-.46-.49,1.41A76.87,76.87,0,0,0,120.28,303.89Z"/><path class="cls-7" d="M169.65,269.49c3.82-.71,6.89,1.86,9.66,8,4,9,5.7,19.19,7.19,28.71,2.52,16,3,32.89,3.08,49.32a385.29,385.29,0,0,1-1.75,38.57,193.62,193.62,0,0,1-4.48,27.64c-1.82,7.39-3.81,12.68-6,16.1s-4.63,4.81-7.53,4.28-5.69-2.91-8.68-7.06a81.43,81.43,0,0,1-9-17.07,136.66,136.66,0,0,1-7.87-26.82,198.83,198.83,0,0,1-3.43-35.86,195.72,195.72,0,0,1,3.63-36.14,135,135,0,0,1,8-26.44,80,80,0,0,1,8.8-16.52C164.1,272.28,166.83,270,169.65,269.49ZM179,355.28c-.09-11.57-.28-23.27-1.52-34.85-1-9.44-2.39-16.21-4.18-20.63s-3.81-6.41-6.28-6.14c-1.76.19-3.49,1.6-5.24,4.22a45.83,45.83,0,0,0-5,11.28,120.2,120.2,0,0,0-4.24,19.07,186.55,186.55,0,0,0-1.89,27.07,189.66,189.66,0,0,0,1.85,27.42,119.68,119.68,0,0,0,4.35,19.56,47.86,47.86,0,0,0,5.12,11.5c1.73,2.59,3.44,4,5.2,4.17,2.26.24,4.18-1.62,5.94-5.77s3.2-10.81,4.27-20.3A306.86,306.86,0,0,0,179,355.28Z"/><path class="cls-7" d="M222.76,300.44c-3.66-.79-5.53-1.14-9.32-1.74a479.94,479.94,0,0,1-1.36,123.57,64.08,64.08,0,0,1-3.47,13.85c-1.25,3-2.38,4.64-3.45,4.91s-1.72-.93-2-3.72-.09-7.25.58-13.66a731.69,731.69,0,0,0,.93-126.12c-3.89-.42-5.87-.59-9.87-.8-1.56-.08-2.78-1.38-3.61-3.87a34.73,34.73,0,0,1-1.38-9.61,32.19,32.19,0,0,1,.76-9.25c.61-2.17,1.53-3.18,2.82-3.06a74.2,74.2,0,0,1,23.74,5.57c1.22.47,2.43,1.86,3.67,4.17a40.88,40.88,0,0,1,3.33,8.67,24.9,24.9,0,0,1,1.11,8.41C225,299.83,224.19,300.75,222.76,300.44Z"/><path class="cls-7" d="M255.44,310.43a111.79,111.79,0,0,0-16.21-6.86A170.63,170.63,0,0,1,246.31,340c7.25.63,10.73,1,17.31,1.79,1.21.15,2.24,1.21,3,3.18a26.1,26.1,0,0,1,.49,15.49c-.68,2-1.67,3.1-2.91,3.19-6.64.44-10.15.64-17.46,1a232.22,232.22,0,0,1-7.34,42.72,111.53,111.53,0,0,0,16.8-7c1.05-.53,1.41-.07,1,1.27a24.05,24.05,0,0,1-3.31,5.85,73.17,73.17,0,0,1-5.13,6.36c-1.62,1.84-2.87,3.16-3.72,3.94a73.69,73.69,0,0,1-16.29,11.82c-1.42.8-1.92.15-1.64-2.07a119.24,119.24,0,0,1,3.1-12.43,244.22,244.22,0,0,0,0-118.57c-1.14-4.11-2-7.27-2.55-9.59s-.74-3.81-.55-4.57.72-.86,1.64-.34a73.87,73.87,0,0,1,15.87,11.44,49.55,49.55,0,0,1,3.66,3.87,74.36,74.36,0,0,1,5,6.24,23.55,23.55,0,0,1,3.18,5.68C256.88,310.55,256.51,311,255.44,310.43Z"/><path class="cls-9" d="M61.3,620c23.89,4.42,47.87-6.12,61.23-26.94,13.06-20.34,15.73-48.38,5.84-62.86-2-2.85-6.7-8.58-9.64-18.11-2.19-7.12-1.11-9-2.36-17.81-2.6-18.39-11-35.89-11.69-46.89-.69-10.7,2.08-10,2.77-23.62,1.88-37.11-18.1-52.29-9.23-75.16,3-7.84,5.27-5.77,9.23-15.63,7.08-17.64,1.76-28.74,9.23-39.92,4.32-6.46,7.64-5.06,15.69-11.3,13.11-10.17,25.94-61.21,39.69-62.53A90.25,90.25,0,0,0,182.35,218a34.39,34.39,0,0,0,6.94-1.5c23.09-8.32,25.85-32.61,41.53-33.93,5.38-.45,6.52,2.28,12.37,6,0,0,2,1.6,9.17,4.61,5.8,2.44,25.83,8.16,45.41-1.18,14.27-6.81,14.25-12.83,23.81-13.13,11.41-.35,13,9.11,27.8,12,15.53,3,23.17-5.57,30.09.35,4.37,3.74,4.75,10.11,10.16,18.19A28,28,0,0,0,397,217l.8.52a37.53,37.53,0,0,0,10.31,4.2l.47.12c8.07,2.05,8.75,1.1,14.87,1.88,15,1.9,25.16,18.13,30.12,26,2.24,3.56,1.2,3,3.26,6.8,5.47,10,11.23,14.54,22.41,24.88C498.84,299.58,503.42,306.3,505,315a49.34,49.34,0,0,1,.5,5.18c1.17,19.33-2.51,32.88-4,43.23-4,28.69,4.5,64.88,2.8,74.41-.65,3.64-1.71,7.57-1.71,7.57-1.58,6.62-2.71,10.47-3.1,12-3.68,14.53,6,34,2.7,41.2a19.19,19.19,0,0,1-2.1,3.45c-2.19,2.56-4.67,3.06-9,9.19-11.18,15.87-10.55,35.27-10.46,37.25,1.32,29.3,26.3,52.53,50.15,57.87a53.77,53.77,0,0,0,19.69.66l1.7-542.79H59.82Z"/><text class="cls-10" transform="translate(72.11 45.05) scale(1.06 1)">BE A GOOD HUMAN AND</text><text class="cls-11" transform="translate(66.37 772.72) scale(1.06 1)">V<tspan class="cls-12" x="24.29" y="0">O</tspan><tspan class="cls-13" x="51.43" y="0">TE N</tspan><tspan class="cls-14" x="134.3" y="0">O</tspan><tspan class="cls-15" x="161.88" y="0">VEMBER 3, 2020</tspan></text><text class="cls-16" transform="translate(463.07 710.78) scale(0.81 1)"><tspan class="cls-17">R</tspan><tspan class="cls-18" x="7.64" y="0">e</tspan><tspan x="14.03" y="0">gister online </tspan><tspan class="cls-18" x="-23.26" y="13.2">v</tspan><tspan x="-17.45" y="13.2">ot</tspan><tspan class="cls-19" x="-6.91" y="13.2">e</tspan><tspan x="-0.92" y="13.2">.o</tspan><tspan class="cls-17" x="9.17" y="13.2">r</tspan><tspan x="13.71" y="13.2">g/</tspan><tspan class="cls-20" x="23.68" y="13.2">r</tspan><tspan class="cls-18" x="28.22" y="13.2">e</tspan><tspan class="cls-21" x="34.61" y="13.2">giste</tspan><tspan class="cls-22" x="60.86" y="13.2">r</tspan><tspan x="65.53" y="13.2">-to-</tspan><tspan class="cls-22" x="83.4" y="13.2">v</tspan><tspan class="cls-23" x="89.21" y="13.2">ote</tspan></text></svg>